<svg id="Layer_1" data-name="Layer 1" xmlns="http://www.w3.org/2000/svg" viewBox="0 0 234.24 27"><defs><style>.cls-1{fill:#ce0e2d;}.cls-2{fill:#fff;}</style></defs><title>wordmark</title><rect class="cls-1" width="42" height="27"/><path class="cls-2" d="M17.84,11.26h2.8s0-1.88,0-2.63-.47-2.72-3.72-2.7A3.64,3.64,0,0,0,13,9.54c0,1.05,0,6.82,0,8.23s1,3.32,3.84,3.33,3.74-1.6,3.76-2.79c0-1.37,0-2.54,0-2.54H17.84s0,1.34,0,2c0,.5-.26,1.19-1,1.12S16,18.24,16,17.3V9.64c0-.88.28-1.56.94-1.54s.91.52.9,1.54Z"/><path class="cls-2" d="M29.3,11.08V8.72c0-1.28-.49-2.78-3.39-2.77S22.31,7.58,22.2,9a7,7,0,0,0,.14,2.53,3.72,3.72,0,0,0,1.18,1.52c.87.79,2.19,1.85,2.71,2.47a2.93,2.93,0,0,1,.42,1.8,3,3,0,0,1-.2,1.33.85.85,0,0,1-.77.26c-.45,0-.83-.11-.82-1.1v-2h-2.8s0,2.1,0,2.64a3,3,0,0,0,.83,1.9,3.84,3.84,0,0,0,2.68.76,3.84,3.84,0,0,0,3-1c.51-.55.84-1.37.84-3.09a4.28,4.28,0,0,0-1.58-3.74c-1.24-1.21-2.46-2-2.74-2.7A4.46,4.46,0,0,1,25,8.77a.62.62,0,0,1,.71-.65c.42,0,.68.11.81.54a16.83,16.83,0,0,1,.09,2.42Z"/><path class="cls-2" d="M38.8,6.11V20.92H36.16V19.11s-.25,2.15-3,2-2.31-3.33-2.3-4.4c0-.64,0-10.57,0-10.57h3V17.62a1.92,1.92,0,0,0,.17.81.82.82,0,0,0,.74.32,1,1,0,0,0,.82-.37,1.84,1.84,0,0,0,.24-1c0-.25,0-11.3,0-11.3Z"/><path class="cls-2" d="M54.83,7.67V9.59H52.14v9.63H49.73V9.59H47V7.67Z"/><path class="cls-2" d="M59.46,19.22V13.66c0-.73-.13-1.29-.85-1.29s-.85.56-.85,1.29v5.56H55.5V7.67h2.26V12h0a2,2,0,0,1,1.91-1,1.83,1.83,0,0,1,2,1.76v6.48Z"/><path class="cls-2" d="M64.94,15.54c0,1,0,2.4,1,2.4.8,0,1-.76,1-1.44h2.29a2.9,2.9,0,0,1-.87,2.1,3.37,3.37,0,0,1-2.38.78c-2.91,0-3.3-1.77-3.3-4.3,0-2.21.32-4.1,3.3-4.1s3.37,2,3.29,4.56ZM67,14.28c0-.78,0-1.91-1-1.91s-1,1.22-1,1.91Z"/><path class="cls-2" d="M73.62,13.45c0-3.06,0-6,4-6,2.46,0,3.46,1.36,3.36,3.84H78.59c0-1.54-.27-2.11-1-2.11-1.36,0-1.54,1.28-1.54,4.24s.18,4.24,1.54,4.24c1.12,0,1.07-1.44,1.1-2.36h2.39c0,3.09-1.23,4.08-3.49,4.08C73.62,19.41,73.62,16.47,73.62,13.45Z"/><path class="cls-2" d="M88.24,17.72a14.91,14.91,0,0,0,.11,1.5H86.26l-.1-1.07h0A2.24,2.24,0,0,1,84,19.38c-1.57,0-2.15-1.16-2.15-2.57,0-2.67,2.07-2.79,4.16-2.75v-.63c0-.69-.09-1.18-.91-1.18s-.85.59-.85,1.23H82.06a2.21,2.21,0,0,1,.84-2A3.52,3.52,0,0,1,85,11c2.86,0,3.23,1.24,3.23,2.71Zm-4.16-1c0,.58.1,1.28.83,1.28C86.24,18,86,16.2,86,15.32,84.91,15.37,84.08,15.27,84.08,16.71Z"/><path class="cls-2" d="M91.92,7.67V19.22H89.66V7.67Z"/><path class="cls-2" d="M95.73,7.67V9.45H93.47V7.67Zm0,11.55H93.47V11.14h2.26Z"/><path class="cls-2" d="M101,9.06c-.91-.06-1.1.29-1.1,1.11v1h1v1.4h-1v6.68H97.68V12.54h-1v-1.4h1c0-2.32-.21-3.55,2.54-3.55.27,0,.53,0,.8,0Z"/><path class="cls-2" d="M101.42,15.08c0-2.21.32-4.1,3.3-4.1s3.3,1.89,3.3,4.1c0,2.53-.39,4.3-3.3,4.3S101.42,17.61,101.42,15.08Zm4.34-.13c0-1.68-.08-2.53-1-2.53s-1,.85-1,2.53c0,2.46.21,3,1,3S105.76,17.41,105.76,15Z"/><path class="cls-2" d="M111.36,11.14v1h0a2.07,2.07,0,0,1,2.1-1.2v2c-2-.13-2,1-2,1.82v4.4h-2.25V11.14Z"/><path class="cls-2" d="M116.46,12h0a2,2,0,0,1,1.9-1,1.84,1.84,0,0,1,2,1.76v6.48h-2.26V13.66c0-.73-.13-1.29-.85-1.29s-.85.56-.85,1.29v5.56h-2.25V11.14h2.25Z"/><path class="cls-2" d="M124.18,7.67V9.45h-2.26V7.67Zm0,11.55h-2.26V11.14h2.26Z"/><path class="cls-2" d="M131.82,17.72a14.92,14.92,0,0,0,.12,1.5h-2.1l-.1-1.07h0a2.23,2.23,0,0,1-2.11,1.23c-1.57,0-2.14-1.16-2.14-2.57,0-2.67,2.06-2.79,4.16-2.75v-.63c0-.69-.1-1.18-.92-1.18s-.84.59-.84,1.23h-2.21a2.21,2.21,0,0,1,.83-2,3.54,3.54,0,0,1,2.11-.53c2.87,0,3.23,1.24,3.23,2.71Zm-4.16-1c0,.58.1,1.28.84,1.28,1.32,0,1.12-1.79,1.12-2.67C128.5,15.37,127.66,15.27,127.66,16.71Z"/><path class="cls-2" d="M140.16,19.41c-3,0-3.55-1.75-3.42-3.75h2.41c0,1.1,0,2,1.38,2a1.16,1.16,0,0,0,1.21-1.32c0-2.07-4.86-2.2-4.86-5.64,0-1.81.86-3.25,3.81-3.25,2.35,0,3.52,1.06,3.36,3.47H141.7c0-.86-.15-1.74-1.12-1.74a1.12,1.12,0,0,0-1.25,1.23c0,2.19,4.86,2,4.86,5.63C144.19,19.06,142,19.41,140.16,19.41Z"/><path class="cls-2" d="M144.56,11.14h.91V9.86l2.26-1v2.28h1.17v1.4h-1.17v4.31c0,.61,0,1,.72,1a1.67,1.67,0,0,0,.4,0v1.39a8.08,8.08,0,0,1-1.17.08c-2,0-2.21-1.29-2.21-1.79v-5h-.91Z"/><path class="cls-2" d="M155.89,17.72a14.91,14.91,0,0,0,.11,1.5h-2.1l-.09-1.07h0a2.25,2.25,0,0,1-2.12,1.23c-1.56,0-2.14-1.16-2.14-2.57,0-2.67,2.06-2.79,4.16-2.75v-.63c0-.69-.1-1.18-.91-1.18s-.85.59-.85,1.23h-2.21a2.23,2.23,0,0,1,.83-2,3.57,3.57,0,0,1,2.12-.53c2.86,0,3.23,1.24,3.23,2.71Zm-4.16-1c0,.58.09,1.28.83,1.28,1.33,0,1.12-1.79,1.12-2.67C152.56,15.37,151.73,15.27,151.73,16.71Z"/><path class="cls-2" d="M156.51,11.14h.91V9.86l2.26-1v2.28h1.17v1.4h-1.17v4.31c0,.61,0,1,.72,1a1.67,1.67,0,0,0,.4,0v1.39a7.86,7.86,0,0,1-1.17.08c-1.95,0-2.21-1.29-2.21-1.79v-5h-.91Z"/><path class="cls-2" d="M163.62,15.54c0,1,0,2.4,1,2.4.8,0,1-.76,1-1.44h2.29a2.86,2.86,0,0,1-.87,2.1,3.34,3.34,0,0,1-2.38.78c-2.91,0-3.3-1.77-3.3-4.3,0-2.21.32-4.1,3.3-4.1s3.38,2,3.3,4.56Zm2.06-1.26c0-.78,0-1.91-1-1.91s-1,1.22-1,1.91Z"/><path class="cls-2" d="M180.67,7.67v8.19c0,1.73-1,3.55-3.92,3.55-2.65,0-3.93-1.37-3.93-3.55V7.67h2.41v8c0,1.43.61,2,1.49,2,1.06,0,1.54-.71,1.54-2v-8Z"/><path class="cls-2" d="M184.38,12h0a2,2,0,0,1,1.9-1,1.84,1.84,0,0,1,2,1.76v6.48h-2.26V13.66c0-.73-.13-1.29-.85-1.29s-.85.56-.85,1.29v5.56h-2.25V11.14h2.25Z"/><path class="cls-2" d="M192.18,7.67V9.45h-2.26V7.67Zm0,11.55h-2.26V11.14h2.26Z"/><path class="cls-2" d="M193,11.14h2.29l1.13,6.07h0l1.19-6.07h2.21l-2.23,8.08h-2.48Z"/><path class="cls-2" d="M202.56,15.54c0,1,0,2.4,1,2.4.8,0,1-.76,1-1.44h2.29a2.9,2.9,0,0,1-.86,2.1,3.38,3.38,0,0,1-2.39.78c-2.91,0-3.29-1.77-3.29-4.3,0-2.21.32-4.1,3.29-4.1s3.38,2,3.3,4.56Zm2.06-1.26c0-.78,0-1.91-1-1.91s-1,1.22-1,1.91Z"/><path class="cls-2" d="M210.22,11.14v1h0a2.07,2.07,0,0,1,2.1-1.2v2c-2-.13-2,1-2,1.82v4.4h-2.25V11.14Z"/><path class="cls-2" d="M214.83,16.63a2.31,2.31,0,0,0,.11,1c.13.25.37.38.82.38a.79.79,0,0,0,.83-.83c0-1.71-4-1.33-4-3.9,0-1.75,1.73-2.28,3.19-2.28s2.92.74,2.8,2.48H216.4c0-.56-.07-.89-.23-1a.75.75,0,0,0-.57-.17c-.5,0-.77.32-.77.86,0,1.28,4,1.22,4,3.81,0,1.41-1.15,2.46-3,2.46s-3.28-.49-3.15-2.75Z"/><path class="cls-2" d="M222.14,7.67V9.45h-2.25V7.67Zm0,11.55h-2.25V11.14h2.25Z"/><path class="cls-2" d="M222.89,11.14h.92V9.86l2.25-1v2.28h1.17v1.4h-1.17v4.31c0,.61,0,1,.72,1a1.63,1.63,0,0,0,.4,0v1.39a7.86,7.86,0,0,1-1.17.08c-1.95,0-2.2-1.29-2.2-1.79v-5h-.92Z"/><path class="cls-2" d="M229.61,19.29l-2.19-8.15h2.24l1.15,5.68h0l1.21-5.68h2.18l-3.12,11.14h-2.37Z"/></svg>